<?xml version="1.0" encoding="UTF-8" standalone="no" ?>
<!DOCTYPE svg PUBLIC "-//W3C//DTD SVG 1.1//EN" "http://www.w3.org/Graphics/SVG/1.1/DTD/svg11.dtd">
<svg xmlns="http://www.w3.org/2000/svg" xmlns:xlink="http://www.w3.org/1999/xlink" version="1.1" width="512" height="512" viewBox="255.6 255.6 512 512" xml:space="preserve">
<desc>Created with Fabric.js 5.2.4</desc>
<defs>
</defs>
<rect x="0" y="0" width="100%" height="100%" fill="transparent"></rect>
<g transform="matrix(1 0 0 1 256 256)" id="09db6c71-2381-4970-b3b3-9d42a9d2711e"  >
<rect style="stroke: none; stroke-width: 1; stroke-dasharray: none; stroke-linecap: butt; stroke-dashoffset: 0; stroke-linejoin: miter; stroke-miterlimit: 4; fill: rgb(255,255,255); fill-rule: nonzero; opacity: 1; visibility: hidden;" vector-effect="non-scaling-stroke"  x="-256" y="-256" rx="0" ry="0" width="512" height="512" />
</g>
<g transform="matrix(Infinity NaN NaN Infinity 0 0)" id="7f3ae900-a94b-4451-a78f-1b8ecf093204"  >
</g>
<g transform="matrix(15.23 0 0 15.23 513.95 512.95)" id="9a548936-0698-41ed-accc-c04be62a07c5"  >
<path style="stroke: rgb(0,0,0); stroke-width: 0; stroke-dasharray: none; stroke-linecap: butt; stroke-dashoffset: 0; stroke-linejoin: miter; stroke-miterlimit: 4; fill: rgb(255,255,255); fill-rule: nonzero; opacity: 1;" vector-effect="non-scaling-stroke"  transform=" translate(-11.75, -12.5)" d="M 11.7501 6.40636 C 10.2698 6.40636 10.1222 6.5625 9.3561 6.5625 C 8.71769 6.5625 6.80245 5 5.84485 5 C 4.88724 5 3.77004 5.5625 3.77004 7.1875 L 3.77004 9.0625 C 3.77197 9.55469 3.95081 11.0634 4.65075 10.6602 C 3.82323 11.6382 3.73963 12.7786 3.751 13.8826 C 3.52812 13.947 3.30072 14.0196 3.08003 14.095 C 2.39614 14.3289 1.67085 14.6271 1.3432 14.8387 C 0.995241 15.0634 0.895339 15.5277 1.12006 15.8756 C 1.34478 16.2236 1.80903 16.3235 2.15698 16.0988 C 2.3132 15.9979 2.87823 15.7493 3.56532 15.5144 C 3.64124 15.4884 3.71731 15.4631 3.79298 15.4386 C 3.83925 15.8724 3.95408 16.2684 4.12478 16.6292 L 4.1012 16.6416 C 3.69148 16.8581 3.3113 17.1067 3.06889 17.2652 C 3.02694 17.2926 2.98912 17.3173 2.95599 17.3387 C 2.60803 17.5634 2.50813 18.0277 2.73285 18.3756 C 2.95757 18.7236 3.42182 18.8235 3.76978 18.5988 C 3.8109 18.5722 3.85472 18.5436 3.90097 18.5134 C 4.1463 18.3533 4.45999 18.1485 4.80199 17.9678 C 4.88218 17.9254 4.95935 17.887 5.03317 17.8524 C 6.76347 19.4748 9.86991 20 11.7501 20 C 13.6302 20 16.7367 19.4748 18.467 17.8524 C 18.5408 17.887 18.6179 17.9254 18.6981 17.9678 C 19.0401 18.1485 19.3538 18.3533 19.5991 18.5134 C 19.6454 18.5436 19.6892 18.5722 19.7303 18.5988 C 20.0783 18.8235 20.5425 18.7236 20.7673 18.3756 C 20.992 18.0277 20.8921 17.5634 20.5441 17.3387 C 20.511 17.3173 20.4732 17.2926 20.4312 17.2652 C 20.1888 17.1067 19.8086 16.8581 19.3989 16.6416 L 19.3754 16.6292 C 19.5461 16.2683 19.6609 15.8724 19.7072 15.4385 C 19.783 15.463 19.8592 15.4883 19.9352 15.5144 C 20.6223 15.7493 21.1874 15.9979 21.3436 16.0988 C 21.6915 16.3235 22.1558 16.2236 22.3805 15.8756 C 22.6052 15.5277 22.5053 15.0634 22.1574 14.8387 C 21.8297 14.6271 21.1044 14.3289 20.4205 14.095 C 20.1997 14.0195 19.9722 13.947 19.7492 13.8825 C 19.7605 12.7785 19.6769 11.6382 18.8494 10.6602 C 19.5494 11.0634 19.7282 9.55469 19.7302 9.0625 L 19.7302 7.18761 C 19.7302 5.56261 18.6129 5.00011 17.6553 5.00011 C 16.6977 5.00011 14.7825 6.5625 14.1441 6.5625 C 13.378 6.5625 13.2305 6.40636 11.7501 6.40636 Z M 11.0745 15.6004 C 11.2771 15.5314 11.5162 15.5 11.7501 15.5 C 11.984 15.5 12.2231 15.5314 12.4257 15.6004 C 12.5251 15.6342 12.6467 15.6876 12.7537 15.7738 C 12.8612 15.8603 13.0001 16.0206 13.0001 16.25 C 13.0001 16.4794 12.8612 16.6397 12.7537 16.7262 C 12.6467 16.8124 12.5251 16.8658 12.4257 16.8996 C 12.2231 16.9686 11.984 17 11.7501 17 C 11.5162 17 11.2771 16.9686 11.0745 16.8996 C 10.9751 16.8658 10.8535 16.8124 10.7464 16.7262 C 10.6389 16.6397 10.5001 16.4794 10.5001 16.25 C 10.5001 16.0206 10.6389 15.8603 10.7464 15.7738 C 10.8535 15.6876 10.9751 15.6342 11.0745 15.6004 Z M 13.9201 12.5005 C 14.0566 12.2721 14.326 12 14.7301 12 C 15.1342 12 15.4036 12.2721 15.54 12.5005 C 15.6823 12.7387 15.7501 13.0274 15.7501 13.3125 C 15.7501 13.5976 15.6823 13.8863 15.54 14.1245 C 15.4036 14.3529 15.1342 14.625 14.7301 14.625 C 14.326 14.625 14.0566 14.3529 13.9201 14.1245 C 13.7778 13.8863 13.7101 13.5976 13.7101 13.3125 C 13.7101 13.0274 13.7778 12.7387 13.9201 12.5005 Z M 7.96016 12.5005 C 8.09658 12.2721 8.36599 12 8.7701 12 C 9.17421 12 9.44362 12.2721 9.58004 12.5005 C 9.72234 12.7387 9.79011 13.0274 9.79011 13.3125 C 9.79011 13.5976 9.72234 13.8863 9.58004 14.1245 C 9.44362 14.3529 9.17421 14.625 8.7701 14.625 C 8.36599 14.625 8.09658 14.3529 7.96016 14.1245 C 7.81786 13.8863 7.75009 13.5976 7.75009 13.3125 C 7.75009 13.0274 7.81786 12.7387 7.96016 12.5005 Z" stroke-linecap="round" />
</g>
<g transform="matrix(4.8 0 0 4.8 515.95 514.95)" id="ad8cd5b5-316e-4cf8-b769-ecfda65b7063"  >
<path style="stroke: rgb(255,255,255); stroke-width: 2; stroke-dasharray: none; stroke-linecap: butt; stroke-dashoffset: 0; stroke-linejoin: miter; stroke-miterlimit: 4; fill: rgb(255,255,255); fill-rule: nonzero; opacity: 1;" vector-effect="non-scaling-stroke"  transform=" translate(-50, -50)" d="M 50 92.875 C 26.358 92.875 7.125 73.642 7.125 50 C 7.125 26.358000000000004 26.358 7.125 50 7.125 C 73.642 7.125 92.875 26.358 92.875 50 C 92.875 73.642 73.642 92.875 50 92.875 z M 50 9.125 C 27.461 9.125 9.125 27.461 9.125 50 C 9.125 72.538 27.461 90.875 50 90.875 C 72.538 90.875 90.875 72.538 90.875 50 C 90.875 27.461 72.538 9.125 50 9.125 z" stroke-linecap="round" />
</g>
</svg>